<mxfile host="Electron" modified="2024-07-05T09:30:23.804Z" agent="Mozilla/5.0 (X11; Linux x86_64) AppleWebKit/537.36 (KHTML, like Gecko) draw.io/24.5.3 Chrome/124.0.6367.207 Electron/30.0.6 Safari/537.36" etag="MwH7ilmKOkOzA6TKVl2_" version="24.5.3" type="device">
  <diagram name="Page-1" id="vUJvHMVq9Ax0yadY_CV4">
    <mxGraphModel dx="1314" dy="769" grid="1" gridSize="10" guides="1" tooltips="1" connect="1" arrows="1" fold="1" page="1" pageScale="1" pageWidth="850" pageHeight="1100" math="0" shadow="0">
      <root>
        <mxCell id="0" />
        <mxCell id="1" parent="0" />
        <mxCell id="tGnv5lgjR0wcV_9iN31t-31" style="edgeStyle=orthogonalEdgeStyle;rounded=0;orthogonalLoop=1;jettySize=auto;html=1;strokeWidth=2;endArrow=classicThin;endFill=1;" edge="1" parent="1" source="tGnv5lgjR0wcV_9iN31t-32" target="tGnv5lgjR0wcV_9iN31t-34">
          <mxGeometry relative="1" as="geometry" />
        </mxCell>
        <mxCell id="tGnv5lgjR0wcV_9iN31t-32" value="&lt;font face=&quot;Titillium Web&quot; style=&quot;font-size: 16px;&quot;&gt;Inputs&lt;/font&gt;" style="ellipse;whiteSpace=wrap;html=1;aspect=fixed;strokeWidth=2;fillColor=#A59FFF;" vertex="1" parent="1">
          <mxGeometry x="35" y="45" width="80" height="80" as="geometry" />
        </mxCell>
        <mxCell id="tGnv5lgjR0wcV_9iN31t-45" style="edgeStyle=orthogonalEdgeStyle;rounded=0;orthogonalLoop=1;jettySize=auto;html=1;strokeWidth=2;endArrow=classicThin;endFill=1;" edge="1" parent="1" source="tGnv5lgjR0wcV_9iN31t-34" target="tGnv5lgjR0wcV_9iN31t-43">
          <mxGeometry relative="1" as="geometry" />
        </mxCell>
        <mxCell id="tGnv5lgjR0wcV_9iN31t-34" value="&lt;font color=&quot;#ffffff&quot; face=&quot;Titillium Web&quot; style=&quot;font-size: 16px;&quot;&gt;DFT&lt;/font&gt;" style="rhombus;whiteSpace=wrap;html=1;strokeWidth=2;fillColor=#192E86;" vertex="1" parent="1">
          <mxGeometry x="195" y="40" width="90" height="90" as="geometry" />
        </mxCell>
        <mxCell id="tGnv5lgjR0wcV_9iN31t-43" value="&lt;font color=&quot;#ffffff&quot; face=&quot;Titillium Web&quot; style=&quot;font-size: 16px;&quot;&gt;Outputs&lt;/font&gt;&lt;div&gt;&lt;font face=&quot;Titillium Web&quot; color=&quot;#ffffff&quot;&gt;&lt;span style=&quot;font-size: 16px;&quot;&gt;DFT&lt;/span&gt;&lt;/font&gt;&lt;/div&gt;" style="ellipse;whiteSpace=wrap;html=1;aspect=fixed;strokeWidth=2;fillColor=#005A35;" vertex="1" parent="1">
          <mxGeometry x="345" y="45" width="80" height="80" as="geometry" />
        </mxCell>
      </root>
    </mxGraphModel>
  </diagram>
</mxfile>
